<svg xmlns="http://www.w3.org/2000/svg" width="1280" height="720" viewBox="0 0 1280 720" fill="none">
  <defs>
    <linearGradient id="bg2" x1="0" y1="0" x2="1280" y2="720" gradientUnits="userSpaceOnUse">
      <stop stop-color="#1A1532" />
      <stop offset="1" stop-color="#251C45" />
    </linearGradient>
    <linearGradient id="card" x1="100" y1="120" x2="1180" y2="640" gradientUnits="userSpaceOnUse">
      <stop stop-color="#2A2150" />
      <stop offset="1" stop-color="#33285E" />
    </linearGradient>
    <linearGradient id="accent" x1="0" y1="0" x2="1" y2="1">
      <stop stop-color="#C8B0FF" />
      <stop offset="1" stop-color="#8BD4FF" />
    </linearGradient>
  </defs>

  <rect width="1280" height="720" rx="24" fill="url(#bg2)" />

  <rect x="100" y="88" width="1080" height="548" rx="20" fill="url(#card)" />
  <rect x="140" y="128" width="380" height="468" rx="18" fill="#3B2F6B" />
  <rect x="548" y="128" width="592" height="468" rx="18" fill="#3A2E69" />

  <rect x="172" y="162" width="316" height="32" rx="16" fill="#4A3D7E" />
  <rect x="172" y="212" width="280" height="20" rx="10" fill="#56488B" />

  <rect x="172" y="260" width="316" height="74" rx="14" fill="#4E4184" />
  <rect x="172" y="350" width="316" height="74" rx="14" fill="#4E4184" />
  <rect x="172" y="440" width="316" height="74" rx="14" fill="#4E4184" />

  <rect x="588" y="162" width="512" height="34" rx="17" fill="#4C3F84" />
  <rect x="588" y="218" width="512" height="320" rx="18" fill="#473A7C" />

  <g stroke="url(#accent)" stroke-width="8" stroke-linecap="round" stroke-linejoin="round" fill="none">
    <path d="M628 430 C700 360 780 488 850 420 C920 350 990 470 1060 400" />
  </g>

  <rect x="588" y="560" width="170" height="38" rx="19" fill="#C8B0FF" />
  <rect x="774" y="560" width="170" height="38" rx="19" fill="#9FD2FF" />
  <rect x="960" y="560" width="140" height="38" rx="19" fill="#584A8E" />

  <circle cx="116" cy="106" r="6" fill="#C8B0FF" />
  <circle cx="136" cy="106" r="6" fill="#9FD2FF" />
  <circle cx="156" cy="106" r="6" fill="#95F2CB" />
</svg>
