<svg xmlns="http://www.w3.org/2000/svg" width="1280" height="720" viewBox="0 0 1280 720" fill="none">
  <defs>
    <linearGradient id="bg" x1="0" y1="0" x2="1280" y2="720" gradientUnits="userSpaceOnUse">
      <stop stop-color="#0D1A33" />
      <stop offset="1" stop-color="#14264A" />
    </linearGradient>
    <linearGradient id="panel" x1="170" y1="178" x2="1110" y2="600" gradientUnits="userSpaceOnUse">
      <stop stop-color="#152D58" />
      <stop offset="1" stop-color="#1A3568" />
    </linearGradient>
    <linearGradient id="chart1" x1="0" y1="0" x2="1" y2="1">
      <stop stop-color="#66F2FF" />
      <stop offset="1" stop-color="#7C8BFF" />
    </linearGradient>
  </defs>

  <rect width="1280" height="720" rx="24" fill="url(#bg)" />
  <rect x="80" y="54" width="1120" height="74" rx="12" fill="#102447" />
  <rect x="112" y="80" width="220" height="20" rx="10" fill="#24477B" />
  <rect x="938" y="76" width="224" height="28" rx="14" fill="#223F6A" />

  <rect x="80" y="160" width="1120" height="500" rx="18" fill="url(#panel)" />

  <rect x="112" y="194" width="252" height="118" rx="14" fill="#24477A" />
  <rect x="384" y="194" width="252" height="118" rx="14" fill="#24477A" />
  <rect x="656" y="194" width="252" height="118" rx="14" fill="#24477A" />
  <rect x="928" y="194" width="240" height="118" rx="14" fill="#24477A" />

  <rect x="112" y="340" width="664" height="286" rx="16" fill="#1A3567" />
  <rect x="802" y="340" width="366" height="286" rx="16" fill="#1A3567" />

  <polyline points="150,542 230,498 300,516 370,470 450,486 535,430 610,448 690,390 745,410"
    stroke="url(#chart1)" stroke-width="10" fill="none" stroke-linecap="round" stroke-linejoin="round" />

  <rect x="836" y="390" width="298" height="24" rx="12" fill="#2C5388" />
  <rect x="836" y="438" width="258" height="24" rx="12" fill="#2C5388" />
  <rect x="836" y="486" width="220" height="24" rx="12" fill="#2C5388" />
  <rect x="836" y="534" width="278" height="24" rx="12" fill="#2C5388" />

  <circle cx="106" cy="616" r="4" fill="#66F2FF" />
  <circle cx="120" cy="616" r="4" fill="#7C8BFF" />
  <circle cx="134" cy="616" r="4" fill="#8EF2B5" />
</svg>
